<?xml version="1.0" encoding="UTF-8" standalone="no"?>
<!DOCTYPE svg PUBLIC "-//W3C//DTD SVG 1.1//EN"
 "http://www.w3.org/Graphics/SVG/1.1/DTD/svg11.dtd">
<!-- Generated by graphviz version 2.50.0 (20211204.2007)
 -->
<!-- Title: Test_Graph Pages: 1 -->
<svg width="702pt" height="620pt"
 viewBox="0.00 0.00 702.00 620.44" xmlns="http://www.w3.org/2000/svg" xmlns:xlink="http://www.w3.org/1999/xlink">
<g id="graph0" class="graph" transform="scale(1 1) rotate(0) translate(36 584.44)">
<title>Test_Graph</title>
<polygon fill="white" stroke="transparent" points="-36,36 -36,-584.44 666,-584.44 666,36 -36,36"/>
<!-- 8 -->
<g id="node1" class="node">
<title>8</title>
<ellipse fill="none" stroke="black" cx="414" cy="-234.44" rx="18" ry="18"/>
<text text-anchor="middle" x="414" y="-230.74" font-family="Times,serif" font-size="14.00">8</text>
</g>
<!-- 9 -->
<g id="node2" class="node">
<title>9</title>
<ellipse fill="none" stroke="black" cx="612" cy="-270.44" rx="18" ry="18"/>
<text text-anchor="middle" x="612" y="-266.74" font-family="Times,serif" font-size="14.00">9</text>
</g>
<!-- 8&#45;&gt;9 -->
<g id="edge1" class="edge">
<title>8&#45;&gt;9</title>
<path fill="none" stroke="black" d="M432.21,-234.51C453.48,-234.88 490.72,-236.43 522,-242.44 543.81,-246.62 567.78,-254.36 585.35,-260.64"/>
<polygon fill="black" stroke="black" points="584.29,-263.98 594.89,-264.13 586.7,-257.4 584.29,-263.98"/>
<text text-anchor="middle" x="513" y="-246.24" font-family="Times,serif" font-size="14.00">1 1</text>
</g>
<!-- 7 -->
<g id="node3" class="node">
<title>7</title>
<ellipse fill="none" stroke="black" cx="414" cy="-414.44" rx="18" ry="18"/>
<text text-anchor="middle" x="414" y="-410.74" font-family="Times,serif" font-size="14.00">7</text>
</g>
<!-- 7&#45;&gt;9 -->
<g id="edge2" class="edge">
<title>7&#45;&gt;9</title>
<path fill="none" stroke="black" d="M429.1,-404.08C462.79,-379.33 548.2,-316.58 588.85,-286.71"/>
<polygon fill="black" stroke="black" points="591.05,-289.44 597.03,-280.7 586.9,-283.8 591.05,-289.44"/>
<text text-anchor="middle" x="513" y="-350.24" font-family="Times,serif" font-size="14.00">1 1</text>
</g>
<!-- 6 -->
<g id="node4" class="node">
<title>6</title>
<ellipse fill="none" stroke="black" cx="414" cy="-330.44" rx="18" ry="18"/>
<text text-anchor="middle" x="414" y="-326.74" font-family="Times,serif" font-size="14.00">6</text>
</g>
<!-- 6&#45;&gt;9 -->
<g id="edge3" class="edge">
<title>6&#45;&gt;9</title>
<path fill="none" stroke="black" d="M431.37,-325.42C465.39,-315.01 543.92,-290.97 584.96,-278.41"/>
<polygon fill="black" stroke="black" points="586,-281.75 594.54,-275.48 583.95,-275.06 586,-281.75"/>
<text text-anchor="middle" x="513" y="-305.24" font-family="Times,serif" font-size="14.00">1 1</text>
</g>
<!-- 5 -->
<g id="node5" class="node">
<title>5</title>
<ellipse fill="none" stroke="black" cx="414" cy="-120.44" rx="18" ry="18"/>
<text text-anchor="middle" x="414" y="-116.74" font-family="Times,serif" font-size="14.00">5</text>
</g>
<!-- 5&#45;&gt;9 -->
<g id="edge4" class="edge">
<title>5&#45;&gt;9</title>
<path fill="none" stroke="black" d="M428.78,-130.98C462.31,-156.64 548.35,-222.49 589.05,-253.63"/>
<polygon fill="black" stroke="black" points="587.16,-256.6 597.23,-259.9 591.42,-251.04 587.16,-256.6"/>
<text text-anchor="middle" x="513" y="-203.24" font-family="Times,serif" font-size="14.00">1 1</text>
</g>
<!-- 4 -->
<g id="node6" class="node">
<title>4</title>
<ellipse fill="none" stroke="black" cx="216" cy="-327.44" rx="18" ry="18"/>
<text text-anchor="middle" x="216" y="-323.74" font-family="Times,serif" font-size="14.00">4</text>
</g>
<!-- 4&#45;&gt;8 -->
<g id="edge5" class="edge">
<title>4&#45;&gt;8</title>
<path fill="none" stroke="black" d="M232.71,-319.98C266.7,-303.86 347.29,-265.62 388.22,-246.19"/>
<polygon fill="black" stroke="black" points="389.95,-249.24 397.49,-241.8 386.95,-242.92 389.95,-249.24"/>
<text text-anchor="middle" x="315" y="-287.24" font-family="Times,serif" font-size="14.00">1 3</text>
</g>
<!-- 4&#45;&gt;7 -->
<g id="edge6" class="edge">
<title>4&#45;&gt;7</title>
<path fill="none" stroke="black" d="M226.27,-342.33C240.42,-363.5 269.66,-401.38 306,-416.44 331.67,-427.07 363.86,-424.6 386.19,-420.7"/>
<polygon fill="black" stroke="black" points="387.15,-424.08 396.29,-418.73 385.81,-417.21 387.15,-424.08"/>
<text text-anchor="middle" x="315" y="-424.24" font-family="Times,serif" font-size="14.00">1 2</text>
</g>
<!-- 4&#45;&gt;6 -->
<g id="edge7" class="edge">
<title>4&#45;&gt;6</title>
<path fill="none" stroke="black" d="M234.05,-327.7C268.08,-328.22 344.66,-329.39 385.74,-330.02"/>
<polygon fill="black" stroke="black" points="385.8,-333.52 395.85,-330.17 385.9,-326.52 385.8,-333.52"/>
<text text-anchor="middle" x="315" y="-332.24" font-family="Times,serif" font-size="14.00">1 1</text>
</g>
<!-- 3 -->
<g id="node7" class="node">
<title>3</title>
<ellipse fill="none" stroke="black" cx="216" cy="-221.44" rx="18" ry="18"/>
<text text-anchor="middle" x="216" y="-217.74" font-family="Times,serif" font-size="14.00">3</text>
</g>
<!-- 3&#45;&gt;8 -->
<g id="edge8" class="edge">
<title>3&#45;&gt;8</title>
<path fill="none" stroke="black" d="M229.44,-209.02C248.98,-191.09 288.33,-161.24 324,-172.44 350.71,-180.82 376.41,-200.38 393.27,-215.3"/>
<polygon fill="black" stroke="black" points="391.06,-218.02 400.8,-222.19 395.78,-212.86 391.06,-218.02"/>
<text text-anchor="middle" x="315" y="-176.24" font-family="Times,serif" font-size="14.00">1 3</text>
</g>
<!-- 3&#45;&gt;7 -->
<g id="edge9" class="edge">
<title>3&#45;&gt;7</title>
<path fill="none" stroke="black" d="M224.71,-237.22C238.22,-263.65 268.37,-317.4 306,-352.44 330.48,-375.22 364.78,-393.23 387.89,-403.84"/>
<polygon fill="black" stroke="black" points="386.49,-407.05 397.04,-407.93 389.34,-400.66 386.49,-407.05"/>
<text text-anchor="middle" x="315" y="-368.24" font-family="Times,serif" font-size="14.00">1 2</text>
</g>
<!-- 3&#45;&gt;5 -->
<g id="edge10" class="edge">
<title>3&#45;&gt;5</title>
<path fill="none" stroke="black" d="M228.56,-208.24C244.33,-191.1 274.27,-161.48 306,-145.44 331.31,-132.64 363.31,-126.27 385.69,-123.19"/>
<polygon fill="black" stroke="black" points="386.35,-126.63 395.84,-121.92 385.48,-119.69 386.35,-126.63"/>
<text text-anchor="middle" x="315" y="-149.24" font-family="Times,serif" font-size="14.00">1 1</text>
</g>
<!-- 2 -->
<g id="node8" class="node">
<title>2</title>
<ellipse fill="none" stroke="black" cx="216" cy="-512.44" rx="18" ry="18"/>
<text text-anchor="middle" x="216" y="-508.74" font-family="Times,serif" font-size="14.00">2</text>
</g>
<!-- 2&#45;&gt;7 -->
<g id="edge11" class="edge">
<title>2&#45;&gt;7</title>
<path fill="none" stroke="black" d="M232.38,-520.07C253.96,-529.64 293.95,-543.1 324,-528.44 361.55,-510.12 387.88,-467.45 401.72,-439.83"/>
<polygon fill="black" stroke="black" points="404.91,-441.28 406.09,-430.75 398.6,-438.24 404.91,-441.28"/>
<text text-anchor="middle" x="315" y="-537.24" font-family="Times,serif" font-size="14.00">1 2</text>
</g>
<!-- 2&#45;&gt;6 -->
<g id="edge12" class="edge">
<title>2&#45;&gt;6</title>
<path fill="none" stroke="black" d="M232.67,-504.68C254.59,-493.36 294.99,-470.77 324,-444.44 354.17,-417.05 381.85,-378.58 398.08,-354.08"/>
<polygon fill="black" stroke="black" points="401.19,-355.71 403.72,-345.43 395.32,-351.89 401.19,-355.71"/>
<text text-anchor="middle" x="315" y="-461.24" font-family="Times,serif" font-size="14.00">1 1</text>
</g>
<!-- 1 -->
<g id="node9" class="node">
<title>1</title>
<ellipse fill="none" stroke="black" cx="216" cy="-81.44" rx="18" ry="18"/>
<text text-anchor="middle" x="216" y="-77.74" font-family="Times,serif" font-size="14.00">1</text>
</g>
<!-- 1&#45;&gt;8 -->
<g id="edge13" class="edge">
<title>1&#45;&gt;8</title>
<path fill="none" stroke="black" d="M234.03,-83.15C256.44,-86.12 296.26,-93.9 324,-113.44 359.47,-138.42 386.43,-182.04 400.96,-209.52"/>
<polygon fill="black" stroke="black" points="397.89,-211.21 405.57,-218.51 404.12,-208.01 397.89,-211.21"/>
<text text-anchor="middle" x="315" y="-117.24" font-family="Times,serif" font-size="14.00">1 2</text>
</g>
<!-- 1&#45;&gt;6 -->
<g id="edge14" class="edge">
<title>1&#45;&gt;6</title>
<path fill="none" stroke="black" d="M227.82,-95.18C260.21,-136.33 356.63,-258.82 395.98,-308.82"/>
<polygon fill="black" stroke="black" points="393.28,-311.04 402.22,-316.74 398.78,-306.71 393.28,-311.04"/>
<text text-anchor="middle" x="315" y="-216.24" font-family="Times,serif" font-size="14.00">1 3</text>
</g>
<!-- 1&#45;&gt;5 -->
<g id="edge15" class="edge">
<title>1&#45;&gt;5</title>
<path fill="none" stroke="black" d="M226.05,-66.19C243.69,-38.58 284.38,15.1 324,-4.44 361.88,-23.12 388.11,-66.51 401.84,-94.61"/>
<polygon fill="black" stroke="black" points="398.76,-96.28 406.17,-103.84 405.09,-93.3 398.76,-96.28"/>
<text text-anchor="middle" x="315" y="-8.24" font-family="Times,serif" font-size="14.00">1 1</text>
</g>
<!-- 0 -->
<g id="node10" class="node">
<title>0</title>
<ellipse fill="none" stroke="black" cx="18" cy="-257.44" rx="18" ry="18"/>
<text text-anchor="middle" x="18" y="-253.74" font-family="Times,serif" font-size="14.00">0</text>
</g>
<!-- 0&#45;&gt;4 -->
<g id="edge16" class="edge">
<title>0&#45;&gt;4</title>
<path fill="none" stroke="black" d="M35.37,-263.28C69.47,-275.46 148.32,-303.62 189.27,-318.25"/>
<polygon fill="black" stroke="black" points="188.22,-321.59 198.81,-321.65 190.57,-314.99 188.22,-321.59"/>
<text text-anchor="middle" x="117" y="-298.24" font-family="Times,serif" font-size="14.00">1 1</text>
</g>
<!-- 0&#45;&gt;3 -->
<g id="edge17" class="edge">
<title>0&#45;&gt;3</title>
<path fill="none" stroke="black" d="M35.11,-251.13C52.72,-244.53 81.91,-234.45 108,-229.44 134.76,-224.3 165.88,-222.42 187.63,-221.75"/>
<polygon fill="black" stroke="black" points="187.88,-225.25 197.79,-221.51 187.71,-218.25 187.88,-225.25"/>
<text text-anchor="middle" x="117" y="-233.24" font-family="Times,serif" font-size="14.00">1 1</text>
</g>
<!-- 0&#45;&gt;2 -->
<g id="edge18" class="edge">
<title>0&#45;&gt;2</title>
<path fill="none" stroke="black" d="M29.82,-271.51C62.21,-313.65 158.63,-439.09 197.98,-490.3"/>
<polygon fill="black" stroke="black" points="195.35,-492.61 204.22,-498.41 200.9,-488.34 195.35,-492.61"/>
<text text-anchor="middle" x="117" y="-396.24" font-family="Times,serif" font-size="14.00">1 1</text>
</g>
<!-- 0&#45;&gt;1 -->
<g id="edge19" class="edge">
<title>0&#45;&gt;1</title>
<path fill="none" stroke="black" d="M31.86,-245.89C65.09,-216.05 154.01,-136.21 194.46,-99.88"/>
<polygon fill="black" stroke="black" points="196.99,-102.31 202.09,-93.03 192.31,-97.1 196.99,-102.31"/>
<text text-anchor="middle" x="117" y="-178.24" font-family="Times,serif" font-size="14.00">1 1</text>
</g>
</g>
</svg>
