<?xml version="1.0" encoding="UTF-8" standalone="no"?>
<!DOCTYPE svg PUBLIC "-//W3C//DTD SVG 1.1//EN"
 "http://www.w3.org/Graphics/SVG/1.1/DTD/svg11.dtd">
<!-- Generated by graphviz version 2.50.0 (20211204.2007)
 -->
<!-- Title: Test_Graph Pages: 1 -->
<svg width="432pt" height="518pt"
 viewBox="0.00 0.00 432.07 517.59" xmlns="http://www.w3.org/2000/svg" xmlns:xlink="http://www.w3.org/1999/xlink">
<g id="graph0" class="graph" transform="scale(1 1) rotate(0) translate(4 513.59)">
<title>Test_Graph</title>
<polygon fill="white" stroke="transparent" points="-4,4 -4,-513.59 428.07,-513.59 428.07,4 -4,4"/>
<!-- commercial -->
<g id="node1" class="node">
<title>commercial</title>
<ellipse fill="none" stroke="black" cx="278.38" cy="-456.3" rx="53.09" ry="53.09"/>
<text text-anchor="middle" x="278.38" y="-452.6" font-family="Times,serif" font-size="14.00">commercial</text>
</g>
<!-- Puit -->
<g id="node2" class="node">
<title>Puit</title>
<ellipse fill="none" stroke="black" cx="399.38" cy="-239.3" rx="24.9" ry="24.9"/>
<text text-anchor="middle" x="399.38" y="-235.6" font-family="Times,serif" font-size="14.00">Puit</text>
</g>
<!-- commercial&#45;&gt;Puit -->
<g id="edge1" class="edge">
<title>commercial&#45;&gt;Puit</title>
<path fill="none" stroke="black" d="M315.24,-417.26C321.13,-409.91 326.87,-402.08 331.68,-394.3 356.07,-354.83 375.8,-304.88 387.31,-272.52"/>
<polygon fill="black" stroke="black" points="390.76,-273.26 390.76,-262.66 384.15,-270.95 390.76,-273.26"/>
<text text-anchor="middle" x="353.18" y="-361.1" font-family="Times,serif" font-size="14.00">1</text>
</g>
<!-- jardinier -->
<g id="node3" class="node">
<title>jardinier</title>
<ellipse fill="none" stroke="black" cx="278.38" cy="-40.3" rx="40.09" ry="40.09"/>
<text text-anchor="middle" x="278.38" y="-36.6" font-family="Times,serif" font-size="14.00">jardinier</text>
</g>
<!-- jardinier&#45;&gt;Puit -->
<g id="edge2" class="edge">
<title>jardinier&#45;&gt;Puit</title>
<path fill="none" stroke="black" d="M309.97,-65.74C317.69,-73.13 325.52,-81.57 331.68,-90.3 357.4,-126.76 376.71,-174.74 387.77,-206.27"/>
<polygon fill="black" stroke="black" points="384.52,-207.57 391.07,-215.89 391.14,-205.3 384.52,-207.57"/>
<text text-anchor="middle" x="353.18" y="-132.1" font-family="Times,serif" font-size="14.00">1</text>
</g>
<!-- boulanger -->
<g id="node4" class="node">
<title>boulanger</title>
<ellipse fill="none" stroke="black" cx="278.38" cy="-239.3" rx="46.29" ry="46.29"/>
<text text-anchor="middle" x="278.38" y="-235.6" font-family="Times,serif" font-size="14.00">boulanger</text>
</g>
<!-- boulanger&#45;&gt;Puit -->
<g id="edge3" class="edge">
<title>boulanger&#45;&gt;Puit</title>
<path fill="none" stroke="black" d="M324.71,-239.3C337.81,-239.3 351.89,-239.3 364.2,-239.3"/>
<polygon fill="black" stroke="black" points="364.48,-242.8 374.48,-239.3 364.48,-235.8 364.48,-242.8"/>
<text text-anchor="middle" x="353.18" y="-243.1" font-family="Times,serif" font-size="14.00">1</text>
</g>
<!-- coiffeur -->
<g id="node5" class="node">
<title>coiffeur</title>
<ellipse fill="none" stroke="black" cx="278.38" cy="-137.3" rx="38.19" ry="38.19"/>
<text text-anchor="middle" x="278.38" y="-133.6" font-family="Times,serif" font-size="14.00">coiffeur</text>
</g>
<!-- coiffeur&#45;&gt;Puit -->
<g id="edge4" class="edge">
<title>coiffeur&#45;&gt;Puit</title>
<path fill="none" stroke="black" d="M308.19,-161.99C327.81,-178.81 353.56,-200.88 372.52,-217.13"/>
<polygon fill="black" stroke="black" points="370.32,-219.86 380.19,-223.71 374.88,-214.55 370.32,-219.86"/>
<text text-anchor="middle" x="353.18" y="-207.1" font-family="Times,serif" font-size="14.00">1</text>
</g>
<!-- forgeron -->
<g id="node6" class="node">
<title>forgeron</title>
<ellipse fill="none" stroke="black" cx="278.38" cy="-344.3" rx="40.89" ry="40.89"/>
<text text-anchor="middle" x="278.38" y="-340.6" font-family="Times,serif" font-size="14.00">forgeron</text>
</g>
<!-- forgeron&#45;&gt;Puit -->
<g id="edge5" class="edge">
<title>forgeron&#45;&gt;Puit</title>
<path fill="none" stroke="black" d="M309.72,-317.53C329.15,-300.38 354.1,-278.37 372.58,-262.06"/>
<polygon fill="black" stroke="black" points="375.14,-264.47 380.32,-255.23 370.5,-259.22 375.14,-264.47"/>
<text text-anchor="middle" x="353.18" y="-283.1" font-family="Times,serif" font-size="14.00">1</text>
</g>
<!-- Cedric -->
<g id="node7" class="node">
<title>Cedric</title>
<ellipse fill="none" stroke="black" cx="147.64" cy="-281.3" rx="34.39" ry="34.39"/>
<text text-anchor="middle" x="147.64" y="-277.6" font-family="Times,serif" font-size="14.00">Cedric</text>
</g>
<!-- Cedric&#45;&gt;commercial -->
<g id="edge6" class="edge">
<title>Cedric&#45;&gt;commercial</title>
<path fill="none" stroke="black" d="M175.43,-301.83C186.55,-311.54 198.78,-323.93 207.09,-337.3 221.12,-359.86 212.27,-371.02 225.09,-394.3 227.96,-399.51 231.31,-404.7 234.9,-409.72"/>
<polygon fill="black" stroke="black" points="232.32,-412.11 241.13,-417.99 237.91,-407.89 232.32,-412.11"/>
<text text-anchor="middle" x="203.59" y="-341.1" font-family="Times,serif" font-size="14.00">1</text>
</g>
<!-- Cedric&#45;&gt;jardinier -->
<g id="edge7" class="edge">
<title>Cedric&#45;&gt;jardinier</title>
<path fill="none" stroke="black" d="M181.25,-273.05C191.04,-268.98 200.82,-263.01 207.09,-254.3 249.91,-194.77 192.63,-156.05 225.09,-90.3 228.41,-83.56 233.04,-77.24 238.18,-71.51"/>
<polygon fill="black" stroke="black" points="240.95,-73.69 245.43,-64.09 235.94,-68.8 240.95,-73.69"/>
<text text-anchor="middle" x="203.59" y="-265.1" font-family="Times,serif" font-size="14.00">1</text>
</g>
<!-- Marie -->
<g id="node8" class="node">
<title>Marie</title>
<ellipse fill="none" stroke="black" cx="147.64" cy="-366.3" rx="32.49" ry="32.49"/>
<text text-anchor="middle" x="147.64" y="-362.6" font-family="Times,serif" font-size="14.00">Marie</text>
</g>
<!-- Marie&#45;&gt;commercial -->
<g id="edge8" class="edge">
<title>Marie&#45;&gt;commercial</title>
<path fill="none" stroke="black" d="M174.69,-384.51C189.34,-394.75 208.15,-407.9 225.67,-420.14"/>
<polygon fill="black" stroke="black" points="223.93,-423.2 234.13,-426.06 227.94,-417.46 223.93,-423.2"/>
<text text-anchor="middle" x="203.59" y="-409.1" font-family="Times,serif" font-size="14.00">1</text>
</g>
<!-- Marie&#45;&gt;forgeron -->
<g id="edge9" class="edge">
<title>Marie&#45;&gt;forgeron</title>
<path fill="none" stroke="black" d="M179.81,-360.97C194.09,-358.53 211.38,-355.58 227.41,-352.84"/>
<polygon fill="black" stroke="black" points="228.45,-356.21 237.72,-351.07 227.28,-349.31 228.45,-356.21"/>
<text text-anchor="middle" x="203.59" y="-360.1" font-family="Times,serif" font-size="14.00">1</text>
</g>
<!-- Source -->
<g id="node9" class="node">
<title>Source</title>
<ellipse fill="none" stroke="black" cx="35.1" cy="-281.3" rx="35.19" ry="35.19"/>
<text text-anchor="middle" x="35.1" y="-277.6" font-family="Times,serif" font-size="14.00">Source</text>
</g>
<!-- Source&#45;&gt;Cedric -->
<g id="edge10" class="edge">
<title>Source&#45;&gt;Cedric</title>
<path fill="none" stroke="black" d="M70.47,-281.3C80.75,-281.3 92.16,-281.3 102.95,-281.3"/>
<polygon fill="black" stroke="black" points="103.05,-284.8 113.05,-281.3 103.05,-277.8 103.05,-284.8"/>
<text text-anchor="middle" x="91.69" y="-285.1" font-family="Times,serif" font-size="14.00">1</text>
</g>
<!-- Source&#45;&gt;Marie -->
<g id="edge11" class="edge">
<title>Source&#45;&gt;Marie</title>
<path fill="none" stroke="black" d="M63.42,-302.31C78.45,-313.86 97.22,-328.29 113.12,-340.52"/>
<polygon fill="black" stroke="black" points="111.08,-343.37 121.15,-346.69 115.35,-337.82 111.08,-343.37"/>
<text text-anchor="middle" x="91.69" y="-330.1" font-family="Times,serif" font-size="14.00">1</text>
</g>
<!-- Lucas -->
<g id="node10" class="node">
<title>Lucas</title>
<ellipse fill="none" stroke="black" cx="147.64" cy="-197.3" rx="31.7" ry="31.7"/>
<text text-anchor="middle" x="147.64" y="-193.6" font-family="Times,serif" font-size="14.00">Lucas</text>
</g>
<!-- Source&#45;&gt;Lucas -->
<g id="edge12" class="edge">
<title>Source&#45;&gt;Lucas</title>
<path fill="none" stroke="black" d="M63.42,-260.53C78.67,-248.95 97.76,-234.44 113.81,-222.24"/>
<polygon fill="black" stroke="black" points="116.05,-224.94 121.89,-216.1 111.81,-219.37 116.05,-224.94"/>
<text text-anchor="middle" x="91.69" y="-243.1" font-family="Times,serif" font-size="14.00">1</text>
</g>
<!-- Lucas&#45;&gt;jardinier -->
<g id="edge13" class="edge">
<title>Lucas&#45;&gt;jardinier</title>
<path fill="none" stroke="black" d="M165.57,-170.76C180.27,-148.46 202.66,-116.18 225.09,-90.3 229.84,-84.81 235.11,-79.26 240.42,-73.95"/>
<polygon fill="black" stroke="black" points="242.94,-76.38 247.64,-66.88 238.05,-71.37 242.94,-76.38"/>
<text text-anchor="middle" x="203.59" y="-124.1" font-family="Times,serif" font-size="14.00">1</text>
</g>
<!-- Lucas&#45;&gt;forgeron -->
<g id="edge14" class="edge">
<title>Lucas&#45;&gt;forgeron</title>
<path fill="none" stroke="black" d="M176.06,-211.88C187.03,-218.89 198.97,-228.21 207.09,-239.3 222.28,-260.05 211.38,-272.53 225.09,-294.3 228.95,-300.43 233.74,-306.35 238.83,-311.83"/>
<polygon fill="black" stroke="black" points="236.39,-314.34 245.9,-319 241.37,-309.42 236.39,-314.34"/>
<text text-anchor="middle" x="203.59" y="-243.1" font-family="Times,serif" font-size="14.00">1</text>
</g>
</g>
</svg>
