<?xml version="1.0" encoding="UTF-8" standalone="no"?>
<!DOCTYPE svg PUBLIC "-//W3C//DTD SVG 1.1//EN"
 "http://www.w3.org/Graphics/SVG/1.1/DTD/svg11.dtd">
<!-- Generated by graphviz version 2.50.0 (20211204.2007)
 -->
<!-- Title: Test_Graph Pages: 1 -->
<svg width="928pt" height="183pt"
 viewBox="0.00 0.00 928.00 183.00" xmlns="http://www.w3.org/2000/svg" xmlns:xlink="http://www.w3.org/1999/xlink">
<g id="graph0" class="graph" transform="scale(1 1) rotate(0) translate(36 147)">
<title>Test_Graph</title>
<polygon fill="white" stroke="transparent" points="-36,36 -36,-147 892,-147 892,36 -36,36"/>
<!-- 4 -->
<g id="node1" class="node">
<title>4</title>
<ellipse fill="none" stroke="black" cx="633" cy="-18" rx="18" ry="18"/>
<text text-anchor="middle" x="633" y="-14.3" font-family="Times,serif" font-size="14.00">4</text>
</g>
<!-- 5 -->
<g id="node2" class="node">
<title>5</title>
<ellipse fill="none" stroke="black" cx="838" cy="-63" rx="18" ry="18"/>
<text text-anchor="middle" x="838" y="-59.3" font-family="Times,serif" font-size="14.00">5</text>
</g>
<!-- 4&#45;&gt;5 -->
<g id="edge1" class="edge">
<title>4&#45;&gt;5</title>
<path fill="none" stroke="black" d="M650.96,-21.76C686.27,-29.59 767.93,-47.69 810.35,-57.09"/>
<polygon fill="black" stroke="black" points="809.71,-60.54 820.23,-59.28 811.23,-53.7 809.71,-60.54"/>
<text text-anchor="middle" x="735.5" y="-46.8" font-family="Times,serif" font-size="14.00">20 1</text>
</g>
<!-- 3 -->
<g id="node3" class="node">
<title>3</title>
<ellipse fill="none" stroke="black" cx="428" cy="-93" rx="18" ry="18"/>
<text text-anchor="middle" x="428" y="-89.3" font-family="Times,serif" font-size="14.00">3</text>
</g>
<!-- 3&#45;&gt;4 -->
<g id="edge3" class="edge">
<title>3&#45;&gt;4</title>
<path fill="none" stroke="black" d="M445.27,-86.99C480.47,-73.98 563.94,-43.14 606.34,-27.48"/>
<polygon fill="black" stroke="black" points="607.77,-30.68 615.94,-23.94 605.34,-24.12 607.77,-30.68"/>
<text text-anchor="middle" x="530.5" y="-62.8" font-family="Times,serif" font-size="14.00">20 2</text>
</g>
<!-- 3&#45;&gt;5 -->
<g id="edge2" class="edge">
<title>3&#45;&gt;5</title>
<path fill="none" stroke="black" d="M446.01,-91.75C509.39,-87.09 732.12,-70.71 809.93,-64.99"/>
<polygon fill="black" stroke="black" points="810.2,-68.48 819.92,-64.26 809.69,-61.5 810.2,-68.48"/>
<text text-anchor="middle" x="633" y="-81.8" font-family="Times,serif" font-size="14.00">25 2</text>
</g>
<!-- 2 -->
<g id="node4" class="node">
<title>2</title>
<ellipse fill="none" stroke="black" cx="223" cy="-18" rx="18" ry="18"/>
<text text-anchor="middle" x="223" y="-14.3" font-family="Times,serif" font-size="14.00">2</text>
</g>
<!-- 2&#45;&gt;4 -->
<g id="edge4" class="edge">
<title>2&#45;&gt;4</title>
<path fill="none" stroke="black" d="M241.01,-18C304.26,-18 526.21,-18 604.45,-18"/>
<polygon fill="black" stroke="black" points="604.92,-21.5 614.92,-18 604.92,-14.5 604.92,-21.5"/>
<text text-anchor="middle" x="428" y="-21.8" font-family="Times,serif" font-size="14.00">10 4</text>
</g>
<!-- 2&#45;&gt;3 -->
<g id="edge5" class="edge">
<title>2&#45;&gt;3</title>
<path fill="none" stroke="black" d="M240.27,-24.01C275.47,-37.02 358.94,-67.86 401.34,-83.52"/>
<polygon fill="black" stroke="black" points="400.34,-86.88 410.94,-87.06 402.77,-80.32 400.34,-86.88"/>
<text text-anchor="middle" x="325.5" y="-62.8" font-family="Times,serif" font-size="14.00">25 5</text>
</g>
<!-- 1 -->
<g id="node5" class="node">
<title>1</title>
<ellipse fill="none" stroke="black" cx="18" cy="-63" rx="18" ry="18"/>
<text text-anchor="middle" x="18" y="-59.3" font-family="Times,serif" font-size="14.00">1</text>
</g>
<!-- 1&#45;&gt;3 -->
<g id="edge6" class="edge">
<title>1&#45;&gt;3</title>
<path fill="none" stroke="black" d="M36.01,-64.25C99.39,-68.91 322.12,-85.29 399.93,-91.01"/>
<polygon fill="black" stroke="black" points="399.69,-94.5 409.92,-91.74 400.2,-87.52 399.69,-94.5"/>
<text text-anchor="middle" x="223" y="-81.8" font-family="Times,serif" font-size="14.00">20 6</text>
</g>
<!-- 1&#45;&gt;2 -->
<g id="edge7" class="edge">
<title>1&#45;&gt;2</title>
<path fill="none" stroke="black" d="M35.96,-59.24C71.27,-51.41 152.93,-33.31 195.35,-23.91"/>
<polygon fill="black" stroke="black" points="196.23,-27.3 205.23,-21.72 194.71,-20.46 196.23,-27.3"/>
<text text-anchor="middle" x="120.5" y="-46.8" font-family="Times,serif" font-size="14.00">30 7</text>
</g>
</g>
</svg>
