<?xml version="1.0" encoding="UTF-8" standalone="no"?>
<!DOCTYPE svg PUBLIC "-//W3C//DTD SVG 1.1//EN"
 "http://www.w3.org/Graphics/SVG/1.1/DTD/svg11.dtd">
<!-- Generated by graphviz version 2.50.0 (20211204.2007)
 -->
<!-- Title: Test_Graph Pages: 1 -->
<svg width="465pt" height="517pt"
 viewBox="0.00 0.00 465.07 517.29" xmlns="http://www.w3.org/2000/svg" xmlns:xlink="http://www.w3.org/1999/xlink">
<g id="graph0" class="graph" transform="scale(1 1) rotate(0) translate(4 513.29)">
<title>Test_Graph</title>
<polygon fill="white" stroke="transparent" points="-4,4 -4,-513.29 461.07,-513.29 461.07,4 -4,4"/>
<!-- Lucas -->
<g id="node1" class="node">
<title>Lucas</title>
<ellipse fill="none" stroke="black" cx="158.64" cy="-424.35" rx="31.7" ry="31.7"/>
<text text-anchor="middle" x="158.64" y="-420.65" font-family="Times,serif" font-size="14.00">Lucas</text>
</g>
<!-- forgeron -->
<g id="node2" class="node">
<title>forgeron</title>
<ellipse fill="none" stroke="black" cx="300.38" cy="-468.35" rx="40.89" ry="40.89"/>
<text text-anchor="middle" x="300.38" y="-464.65" font-family="Times,serif" font-size="14.00">forgeron</text>
</g>
<!-- Lucas&#45;&gt;forgeron -->
<g id="edge1" class="edge">
<title>Lucas&#45;&gt;forgeron</title>
<path fill="none" stroke="black" d="M189.28,-433.68C207.33,-439.36 230.82,-446.76 251.46,-453.26"/>
<polygon fill="black" stroke="black" points="250.43,-456.6 261.02,-456.27 252.53,-449.93 250.43,-456.6"/>
<text text-anchor="middle" x="220.09" y="-448.15" font-family="Times,serif" font-size="14.00">1/1</text>
</g>
<!-- jardinier -->
<g id="node3" class="node">
<title>jardinier</title>
<ellipse fill="none" stroke="black" cx="300.38" cy="-369.35" rx="40.09" ry="40.09"/>
<text text-anchor="middle" x="300.38" y="-365.65" font-family="Times,serif" font-size="14.00">jardinier</text>
</g>
<!-- Lucas&#45;&gt;jardinier -->
<g id="edge2" class="edge">
<title>Lucas&#45;&gt;jardinier</title>
<path fill="none" stroke="black" d="M188.78,-413.68C201.23,-409.06 215.91,-403.53 229.09,-398.35 237.03,-395.22 245.45,-391.82 253.6,-388.49"/>
<polygon fill="black" stroke="black" points="255.07,-391.67 262.99,-384.63 252.41,-385.19 255.07,-391.67"/>
<text text-anchor="middle" x="220.09" y="-408.15" font-family="Times,serif" font-size="14.00">0/1</text>
</g>
<!-- Puit -->
<g id="node11" class="node">
<title>Puit</title>
<ellipse fill="none" stroke="black" cx="432.38" cy="-257.35" rx="24.9" ry="24.9"/>
<text text-anchor="middle" x="432.38" y="-253.65" font-family="Times,serif" font-size="14.00">Puit</text>
</g>
<!-- forgeron&#45;&gt;Puit -->
<g id="edge14" class="edge">
<title>forgeron&#45;&gt;Puit</title>
<path fill="none" stroke="black" d="M332.35,-442.26C339.89,-435 347.55,-426.78 353.68,-418.35 383.33,-377.57 406.64,-323.7 419.71,-289.79"/>
<polygon fill="black" stroke="black" points="423.02,-290.95 423.28,-280.36 416.47,-288.47 423.02,-290.95"/>
<text text-anchor="middle" x="380.68" y="-393.15" font-family="Times,serif" font-size="14.00">1/1</text>
</g>
<!-- jardinier&#45;&gt;Puit -->
<g id="edge17" class="edge">
<title>jardinier&#45;&gt;Puit</title>
<path fill="none" stroke="black" d="M331.53,-343.37C353.88,-324.12 384.03,-298.14 405.33,-279.79"/>
<polygon fill="black" stroke="black" points="407.74,-282.33 413.03,-273.16 403.17,-277.03 407.74,-282.33"/>
<text text-anchor="middle" x="380.68" y="-310.15" font-family="Times,serif" font-size="14.00">1/1</text>
</g>
<!-- Source -->
<g id="node4" class="node">
<title>Source</title>
<ellipse fill="none" stroke="black" cx="35.1" cy="-288.35" rx="35.19" ry="35.19"/>
<text text-anchor="middle" x="35.1" y="-284.65" font-family="Times,serif" font-size="14.00">Source</text>
</g>
<!-- Source&#45;&gt;Lucas -->
<g id="edge3" class="edge">
<title>Source&#45;&gt;Lucas</title>
<path fill="none" stroke="black" d="M59.24,-314.25C79.29,-336.68 108.35,-369.19 129.69,-393.07"/>
<polygon fill="black" stroke="black" points="127.34,-395.69 136.61,-400.81 132.56,-391.03 127.34,-395.69"/>
<text text-anchor="middle" x="97.19" y="-368.15" font-family="Times,serif" font-size="14.00">1/1</text>
</g>
<!-- Marie -->
<g id="node5" class="node">
<title>Marie</title>
<ellipse fill="none" stroke="black" cx="158.64" cy="-342.35" rx="32.49" ry="32.49"/>
<text text-anchor="middle" x="158.64" y="-338.65" font-family="Times,serif" font-size="14.00">Marie</text>
</g>
<!-- Source&#45;&gt;Marie -->
<g id="edge4" class="edge">
<title>Source&#45;&gt;Marie</title>
<path fill="none" stroke="black" d="M67.4,-302.25C83.16,-309.25 102.4,-317.8 119.07,-325.21"/>
<polygon fill="black" stroke="black" points="117.97,-328.55 128.53,-329.41 120.82,-322.16 117.97,-328.55"/>
<text text-anchor="middle" x="97.19" y="-322.15" font-family="Times,serif" font-size="14.00">1/1</text>
</g>
<!-- Cedric -->
<g id="node6" class="node">
<title>Cedric</title>
<ellipse fill="none" stroke="black" cx="158.64" cy="-257.35" rx="34.39" ry="34.39"/>
<text text-anchor="middle" x="158.64" y="-253.65" font-family="Times,serif" font-size="14.00">Cedric</text>
</g>
<!-- Source&#45;&gt;Cedric -->
<g id="edge5" class="edge">
<title>Source&#45;&gt;Cedric</title>
<path fill="none" stroke="black" d="M69.31,-279.88C83.36,-276.29 99.9,-272.07 114.85,-268.26"/>
<polygon fill="black" stroke="black" points="116.06,-271.56 124.89,-265.7 114.33,-264.78 116.06,-271.56"/>
<text text-anchor="middle" x="97.19" y="-278.15" font-family="Times,serif" font-size="14.00">1/1</text>
</g>
<!-- Viktor -->
<g id="node7" class="node">
<title>Viktor</title>
<ellipse fill="none" stroke="black" cx="158.64" cy="-156.35" rx="33.6" ry="33.6"/>
<text text-anchor="middle" x="158.64" y="-152.65" font-family="Times,serif" font-size="14.00">Viktor</text>
</g>
<!-- Source&#45;&gt;Viktor -->
<g id="edge6" class="edge">
<title>Source&#45;&gt;Viktor</title>
<path fill="none" stroke="black" d="M59.53,-262.9C79.12,-241.63 107.15,-211.18 128.24,-188.28"/>
<polygon fill="black" stroke="black" points="130.9,-190.55 135.1,-180.83 125.75,-185.81 130.9,-190.55"/>
<text text-anchor="middle" x="97.19" y="-233.15" font-family="Times,serif" font-size="14.00">1/1</text>
</g>
<!-- Marie&#45;&gt;forgeron -->
<g id="edge7" class="edge">
<title>Marie&#45;&gt;forgeron</title>
<path fill="none" stroke="black" d="M189.47,-353.1C202.93,-359.15 218.21,-367.83 229.09,-379.35 242.2,-393.23 235.99,-402.81 247.09,-418.35 251.16,-424.05 255.94,-429.64 260.92,-434.89"/>
<polygon fill="black" stroke="black" points="258.78,-437.71 268.32,-442.33 263.75,-432.77 258.78,-437.71"/>
<text text-anchor="middle" x="220.09" y="-383.15" font-family="Times,serif" font-size="14.00">0/1</text>
</g>
<!-- commercial -->
<g id="node8" class="node">
<title>commercial</title>
<ellipse fill="none" stroke="black" cx="300.38" cy="-257.35" rx="53.09" ry="53.09"/>
<text text-anchor="middle" x="300.38" y="-253.65" font-family="Times,serif" font-size="14.00">commercial</text>
</g>
<!-- Marie&#45;&gt;commercial -->
<g id="edge8" class="edge">
<title>Marie&#45;&gt;commercial</title>
<path fill="none" stroke="black" d="M190.09,-334.02C202.63,-329.93 217.01,-324.36 229.09,-317.35 237.34,-312.55 245.56,-306.75 253.3,-300.66"/>
<polygon fill="black" stroke="black" points="255.96,-303.01 261.5,-293.98 251.54,-297.58 255.96,-303.01"/>
<text text-anchor="middle" x="220.09" y="-329.15" font-family="Times,serif" font-size="14.00">1/1</text>
</g>
<!-- Cedric&#45;&gt;jardinier -->
<g id="edge9" class="edge">
<title>Cedric&#45;&gt;jardinier</title>
<path fill="none" stroke="black" d="M189.78,-272.3C202.54,-279.33 217.18,-288.36 229.09,-298.35 238.51,-306.24 238.63,-310.42 247.09,-319.35 252.08,-324.61 257.47,-330.05 262.85,-335.31"/>
<polygon fill="black" stroke="black" points="260.49,-337.9 270.11,-342.34 265.36,-332.87 260.49,-337.9"/>
<text text-anchor="middle" x="220.09" y="-302.15" font-family="Times,serif" font-size="14.00">1/1</text>
</g>
<!-- Cedric&#45;&gt;commercial -->
<g id="edge10" class="edge">
<title>Cedric&#45;&gt;commercial</title>
<path fill="none" stroke="black" d="M193.11,-257.35C206.23,-257.35 221.73,-257.35 236.77,-257.35"/>
<polygon fill="black" stroke="black" points="237.08,-260.85 247.08,-257.35 237.08,-253.85 237.08,-260.85"/>
<text text-anchor="middle" x="220.09" y="-261.15" font-family="Times,serif" font-size="14.00">0/1</text>
</g>
<!-- Viktor&#45;&gt;commercial -->
<g id="edge12" class="edge">
<title>Viktor&#45;&gt;commercial</title>
<path fill="none" stroke="black" d="M186.58,-175.82C204.09,-188.47 227.46,-205.36 248.39,-220.49"/>
<polygon fill="black" stroke="black" points="246.42,-223.39 256.58,-226.41 250.52,-217.71 246.42,-223.39"/>
<text text-anchor="middle" x="220.09" y="-207.15" font-family="Times,serif" font-size="14.00">0/1</text>
</g>
<!-- boulanger -->
<g id="node9" class="node">
<title>boulanger</title>
<ellipse fill="none" stroke="black" cx="300.38" cy="-140.35" rx="46.29" ry="46.29"/>
<text text-anchor="middle" x="300.38" y="-136.65" font-family="Times,serif" font-size="14.00">boulanger</text>
</g>
<!-- Viktor&#45;&gt;boulanger -->
<g id="edge11" class="edge">
<title>Viktor&#45;&gt;boulanger</title>
<path fill="none" stroke="black" d="M192.4,-152.6C207.85,-150.83 226.7,-148.67 244.25,-146.66"/>
<polygon fill="black" stroke="black" points="244.86,-150.11 254.39,-145.5 244.06,-143.16 244.86,-150.11"/>
<text text-anchor="middle" x="220.09" y="-153.15" font-family="Times,serif" font-size="14.00">1/1</text>
</g>
<!-- coiffeur -->
<g id="node10" class="node">
<title>coiffeur</title>
<ellipse fill="none" stroke="black" cx="300.38" cy="-38.35" rx="38.19" ry="38.19"/>
<text text-anchor="middle" x="300.38" y="-34.65" font-family="Times,serif" font-size="14.00">coiffeur</text>
</g>
<!-- Viktor&#45;&gt;coiffeur -->
<g id="edge13" class="edge">
<title>Viktor&#45;&gt;coiffeur</title>
<path fill="none" stroke="black" d="M184.95,-134.98C206.66,-116.64 238.24,-89.98 262.72,-69.3"/>
<polygon fill="black" stroke="black" points="265.02,-71.94 270.4,-62.82 260.5,-66.6 265.02,-71.94"/>
<text text-anchor="middle" x="220.09" y="-116.15" font-family="Times,serif" font-size="14.00">0/1</text>
</g>
<!-- commercial&#45;&gt;Puit -->
<g id="edge18" class="edge">
<title>commercial&#45;&gt;Puit</title>
<path fill="none" stroke="black" d="M353.88,-257.35C368.56,-257.35 384.12,-257.35 397.42,-257.35"/>
<polygon fill="black" stroke="black" points="397.54,-260.85 407.54,-257.35 397.54,-253.85 397.54,-260.85"/>
<text text-anchor="middle" x="380.68" y="-261.15" font-family="Times,serif" font-size="14.00">1/1</text>
</g>
<!-- boulanger&#45;&gt;Puit -->
<g id="edge16" class="edge">
<title>boulanger&#45;&gt;Puit</title>
<path fill="none" stroke="black" d="M335.2,-170.78C357.25,-190.63 385.57,-216.12 405.76,-234.29"/>
<polygon fill="black" stroke="black" points="403.56,-237.02 413.33,-241.11 408.24,-231.82 403.56,-237.02"/>
<text text-anchor="middle" x="380.68" y="-223.15" font-family="Times,serif" font-size="14.00">1/1</text>
</g>
<!-- coiffeur&#45;&gt;Puit -->
<g id="edge15" class="edge">
<title>coiffeur&#45;&gt;Puit</title>
<path fill="none" stroke="black" d="M331.2,-61.3C339.18,-68.41 347.34,-76.68 353.68,-85.35 385.59,-128.98 408.64,-187.81 421,-224.13"/>
<polygon fill="black" stroke="black" points="417.72,-225.36 424.2,-233.75 424.36,-223.15 417.72,-225.36"/>
<text text-anchor="middle" x="380.68" y="-147.15" font-family="Times,serif" font-size="14.00">0/1</text>
</g>
</g>
</svg>
