<?xml version="1.0" encoding="UTF-8" standalone="no"?>
<!DOCTYPE svg PUBLIC "-//W3C//DTD SVG 1.1//EN"
 "http://www.w3.org/Graphics/SVG/1.1/DTD/svg11.dtd">
<!-- Generated by graphviz version 2.50.0 (20211204.2007)
 -->
<!-- Title: Test_Graph Pages: 1 -->
<svg width="456pt" height="91pt"
 viewBox="0.00 0.00 456.00 91.00" xmlns="http://www.w3.org/2000/svg" xmlns:xlink="http://www.w3.org/1999/xlink">
<g id="graph0" class="graph" transform="scale(1 1) rotate(0) translate(4 87)">
<title>Test_Graph</title>
<polygon fill="white" stroke="transparent" points="-4,4 -4,-87 452,-87 452,4 -4,4"/>
<!-- 1 -->
<g id="node1" class="node">
<title>1</title>
<ellipse fill="none" stroke="black" cx="18" cy="-30" rx="18" ry="18"/>
<text text-anchor="middle" x="18" y="-26.3" font-family="Times,serif" font-size="14.00">1</text>
</g>
<!-- 2 -->
<g id="node2" class="node">
<title>2</title>
<ellipse fill="none" stroke="black" cx="121" cy="-65" rx="18" ry="18"/>
<text text-anchor="middle" x="121" y="-61.3" font-family="Times,serif" font-size="14.00">2</text>
</g>
<!-- 1&#45;&gt;2 -->
<g id="edge1" class="edge">
<title>1&#45;&gt;2</title>
<path fill="none" stroke="black" d="M35.23,-35.62C51.13,-41.13 75.62,-49.62 94.19,-56.06"/>
<polygon fill="black" stroke="black" points="93.22,-59.42 103.81,-59.39 95.51,-52.81 93.22,-59.42"/>
<text text-anchor="middle" x="69.5" y="-55.8" font-family="Times,serif" font-size="14.00">25/30</text>
</g>
<!-- 3 -->
<g id="node3" class="node">
<title>3</title>
<ellipse fill="none" stroke="black" cx="224" cy="-18" rx="18" ry="18"/>
<text text-anchor="middle" x="224" y="-14.3" font-family="Times,serif" font-size="14.00">3</text>
</g>
<!-- 1&#45;&gt;3 -->
<g id="edge2" class="edge">
<title>1&#45;&gt;3</title>
<path fill="none" stroke="black" d="M36.04,-28.37C53,-26.8 79.78,-24.45 103,-23 134.76,-21.02 171.31,-19.62 195.64,-18.82"/>
<polygon fill="black" stroke="black" points="196.02,-22.31 205.9,-18.49 195.79,-15.31 196.02,-22.31"/>
<text text-anchor="middle" x="121" y="-26.8" font-family="Times,serif" font-size="14.00">20/20</text>
</g>
<!-- 2&#45;&gt;3 -->
<g id="edge3" class="edge">
<title>2&#45;&gt;3</title>
<path fill="none" stroke="black" d="M137.64,-57.3C143.67,-54.35 150.64,-50.99 157,-48 170.48,-41.66 185.61,-34.77 197.97,-29.2"/>
<polygon fill="black" stroke="black" points="199.53,-32.33 207.21,-25.04 196.66,-25.95 199.53,-32.33"/>
<text text-anchor="middle" x="172.5" y="-51.8" font-family="Times,serif" font-size="14.00">15/25</text>
</g>
<!-- 4 -->
<g id="node4" class="node">
<title>4</title>
<ellipse fill="none" stroke="black" cx="327" cy="-65" rx="18" ry="18"/>
<text text-anchor="middle" x="327" y="-61.3" font-family="Times,serif" font-size="14.00">4</text>
</g>
<!-- 2&#45;&gt;4 -->
<g id="edge4" class="edge">
<title>2&#45;&gt;4</title>
<path fill="none" stroke="black" d="M139.04,-65C174.37,-65 255.84,-65 298.63,-65"/>
<polygon fill="black" stroke="black" points="298.86,-68.5 308.86,-65 298.86,-61.5 298.86,-68.5"/>
<text text-anchor="middle" x="224" y="-68.8" font-family="Times,serif" font-size="14.00">10/10</text>
</g>
<!-- 3&#45;&gt;4 -->
<g id="edge5" class="edge">
<title>3&#45;&gt;4</title>
<path fill="none" stroke="black" d="M240.79,-25.04C254.19,-31.05 273.91,-39.97 291,-48 294.28,-49.54 297.72,-51.18 301.11,-52.81"/>
<polygon fill="black" stroke="black" points="299.84,-56.09 310.36,-57.3 302.89,-49.79 299.84,-56.09"/>
<text text-anchor="middle" x="275.5" y="-51.8" font-family="Times,serif" font-size="14.00">10/20</text>
</g>
<!-- 5 -->
<g id="node5" class="node">
<title>5</title>
<ellipse fill="none" stroke="black" cx="430" cy="-30" rx="18" ry="18"/>
<text text-anchor="middle" x="430" y="-26.3" font-family="Times,serif" font-size="14.00">5</text>
</g>
<!-- 3&#45;&gt;5 -->
<g id="edge6" class="edge">
<title>3&#45;&gt;5</title>
<path fill="none" stroke="black" d="M242.1,-18.49C265.39,-19.21 308.37,-20.71 345,-23 364.05,-24.19 385.49,-25.98 401.95,-27.46"/>
<polygon fill="black" stroke="black" points="401.69,-30.95 411.96,-28.37 402.32,-23.98 401.69,-30.95"/>
<text text-anchor="middle" x="327" y="-26.8" font-family="Times,serif" font-size="14.00">25/25</text>
</g>
<!-- 4&#45;&gt;5 -->
<g id="edge7" class="edge">
<title>4&#45;&gt;5</title>
<path fill="none" stroke="black" d="M344.23,-59.38C360.13,-53.87 384.62,-45.38 403.19,-38.94"/>
<polygon fill="black" stroke="black" points="404.51,-42.19 412.81,-35.61 402.22,-35.58 404.51,-42.19"/>
<text text-anchor="middle" x="378.5" y="-55.8" font-family="Times,serif" font-size="14.00">20/20</text>
</g>
</g>
</svg>
