<?xml version="1.0" encoding="UTF-8" standalone="no"?>
<!DOCTYPE svg PUBLIC "-//W3C//DTD SVG 1.1//EN"
 "http://www.w3.org/Graphics/SVG/1.1/DTD/svg11.dtd">
<!-- Generated by graphviz version 2.50.0 (20211204.2007)
 -->
<!-- Title: Test_Graph Pages: 1 -->
<svg width="759pt" height="624pt"
 viewBox="0.00 0.00 759.00 623.74" xmlns="http://www.w3.org/2000/svg" xmlns:xlink="http://www.w3.org/1999/xlink">
<g id="graph0" class="graph" transform="scale(1 1) rotate(0) translate(36 587.74)">
<title>Test_Graph</title>
<polygon fill="white" stroke="transparent" points="-36,36 -36,-587.74 723,-587.74 723,36 -36,36"/>
<!-- 0 -->
<g id="node1" class="node">
<title>0</title>
<ellipse fill="none" stroke="black" cx="18" cy="-318.74" rx="18" ry="18"/>
<text text-anchor="middle" x="18" y="-315.04" font-family="Times,serif" font-size="14.00">0</text>
</g>
<!-- 1 -->
<g id="node2" class="node">
<title>1</title>
<ellipse fill="none" stroke="black" cx="235" cy="-450.74" rx="18" ry="18"/>
<text text-anchor="middle" x="235" y="-447.04" font-family="Times,serif" font-size="14.00">1</text>
</g>
<!-- 0&#45;&gt;1 -->
<g id="edge1" class="edge">
<title>0&#45;&gt;1</title>
<path fill="none" stroke="black" d="M33.78,-327.82C70.45,-350.33 165.85,-408.91 210.42,-436.27"/>
<polygon fill="black" stroke="black" points="208.77,-439.36 219.12,-441.61 212.43,-433.39 208.77,-439.36"/>
<text text-anchor="middle" x="126.5" y="-395.54" font-family="Times,serif" font-size="14.00">1/1 (1)</text>
</g>
<!-- 2 -->
<g id="node3" class="node">
<title>2</title>
<ellipse fill="none" stroke="black" cx="235" cy="-178.74" rx="18" ry="18"/>
<text text-anchor="middle" x="235" y="-175.04" font-family="Times,serif" font-size="14.00">2</text>
</g>
<!-- 0&#45;&gt;2 -->
<g id="edge2" class="edge">
<title>0&#45;&gt;2</title>
<path fill="none" stroke="black" d="M33.44,-309.34C70.08,-285.48 166.9,-222.44 211.24,-193.56"/>
<polygon fill="black" stroke="black" points="213.15,-196.5 219.62,-188.11 209.33,-190.63 213.15,-196.5"/>
<text text-anchor="middle" x="126.5" y="-260.54" font-family="Times,serif" font-size="14.00">1/1 (1)</text>
</g>
<!-- 3 -->
<g id="node4" class="node">
<title>3</title>
<ellipse fill="none" stroke="black" cx="235" cy="-370.74" rx="18" ry="18"/>
<text text-anchor="middle" x="235" y="-367.04" font-family="Times,serif" font-size="14.00">3</text>
</g>
<!-- 0&#45;&gt;3 -->
<g id="edge3" class="edge">
<title>0&#45;&gt;3</title>
<path fill="none" stroke="black" d="M35.87,-322.82C73.08,-331.82 162.43,-353.43 207.32,-364.29"/>
<polygon fill="black" stroke="black" points="206.67,-367.73 217.21,-366.68 208.31,-360.93 206.67,-367.73"/>
<text text-anchor="middle" x="126.5" y="-351.54" font-family="Times,serif" font-size="14.00">1/1 (1)</text>
</g>
<!-- 4 -->
<g id="node5" class="node">
<title>4</title>
<ellipse fill="none" stroke="black" cx="235" cy="-282.74" rx="18" ry="18"/>
<text text-anchor="middle" x="235" y="-279.04" font-family="Times,serif" font-size="14.00">4</text>
</g>
<!-- 0&#45;&gt;4 -->
<g id="edge4" class="edge">
<title>0&#45;&gt;4</title>
<path fill="none" stroke="black" d="M35.1,-312.38C52.7,-305.73 81.88,-295.61 108,-290.74 141.56,-284.49 180.92,-282.89 206.61,-282.59"/>
<polygon fill="black" stroke="black" points="206.74,-286.09 216.72,-282.53 206.7,-279.09 206.74,-286.09"/>
<text text-anchor="middle" x="126.5" y="-294.54" font-family="Times,serif" font-size="14.00">1/1 (1)</text>
</g>
<!-- 5 -->
<g id="node6" class="node">
<title>5</title>
<ellipse fill="none" stroke="black" cx="452" cy="-514.74" rx="18" ry="18"/>
<text text-anchor="middle" x="452" y="-511.04" font-family="Times,serif" font-size="14.00">5</text>
</g>
<!-- 1&#45;&gt;5 -->
<g id="edge5" class="edge">
<title>1&#45;&gt;5</title>
<path fill="none" stroke="black" d="M246.39,-465.14C261.26,-484.38 290.66,-517.58 325,-530.74 358.08,-543.43 399.27,-533.89 425.36,-525.02"/>
<polygon fill="black" stroke="black" points="426.68,-528.27 434.9,-521.58 424.3,-521.68 426.68,-528.27"/>
<text text-anchor="middle" x="343.5" y="-540.54" font-family="Times,serif" font-size="14.00">0/1 (1)</text>
</g>
<!-- 6 -->
<g id="node7" class="node">
<title>6</title>
<ellipse fill="none" stroke="black" cx="452" cy="-248.74" rx="18" ry="18"/>
<text text-anchor="middle" x="452" y="-245.04" font-family="Times,serif" font-size="14.00">6</text>
</g>
<!-- 1&#45;&gt;6 -->
<g id="edge6" class="edge">
<title>1&#45;&gt;6</title>
<path fill="none" stroke="black" d="M242.6,-434.03C254.86,-404.89 283.67,-344.44 325,-307.74 354.31,-281.72 397.09,-264.98 424.48,-256.21"/>
<polygon fill="black" stroke="black" points="425.64,-259.52 434.17,-253.24 423.58,-252.83 425.64,-259.52"/>
<text text-anchor="middle" x="343.5" y="-311.54" font-family="Times,serif" font-size="14.00">0/1 (3)</text>
</g>
<!-- 8 -->
<g id="node8" class="node">
<title>8</title>
<ellipse fill="none" stroke="black" cx="452" cy="-395.74" rx="18" ry="18"/>
<text text-anchor="middle" x="452" y="-392.04" font-family="Times,serif" font-size="14.00">8</text>
</g>
<!-- 1&#45;&gt;8 -->
<g id="edge7" class="edge">
<title>1&#45;&gt;8</title>
<path fill="none" stroke="black" d="M252.51,-446.52C289.56,-437.04 379.58,-414.01 424.54,-402.51"/>
<polygon fill="black" stroke="black" points="425.61,-405.85 434.43,-399.98 423.87,-399.07 425.61,-405.85"/>
<text text-anchor="middle" x="343.5" y="-429.54" font-family="Times,serif" font-size="14.00">1/1 (2)</text>
</g>
<!-- 2&#45;&gt;6 -->
<g id="edge8" class="edge">
<title>2&#45;&gt;6</title>
<path fill="none" stroke="black" d="M253.11,-180.42C277.73,-183.18 324.32,-189.73 362,-202.74 385.3,-210.79 410.09,-224.03 427.57,-234.25"/>
<polygon fill="black" stroke="black" points="426.09,-237.44 436.47,-239.56 429.68,-231.43 426.09,-237.44"/>
<text text-anchor="middle" x="343.5" y="-206.54" font-family="Times,serif" font-size="14.00">0/1 (1)</text>
</g>
<!-- 7 -->
<g id="node9" class="node">
<title>7</title>
<ellipse fill="none" stroke="black" cx="452" cy="-94.74" rx="18" ry="18"/>
<text text-anchor="middle" x="452" y="-91.04" font-family="Times,serif" font-size="14.00">7</text>
</g>
<!-- 2&#45;&gt;7 -->
<g id="edge9" class="edge">
<title>2&#45;&gt;7</title>
<path fill="none" stroke="black" d="M238.99,-161.03C246.21,-124.47 268.42,-41.17 325,-6.74 366.64,18.59 413.01,-37.04 436.16,-70.99"/>
<polygon fill="black" stroke="black" points="433.35,-73.09 441.79,-79.49 439.19,-69.22 433.35,-73.09"/>
<text text-anchor="middle" x="343.5" y="-10.54" font-family="Times,serif" font-size="14.00">1/1 (2)</text>
</g>
<!-- 3&#45;&gt;5 -->
<g id="edge10" class="edge">
<title>3&#45;&gt;5</title>
<path fill="none" stroke="black" d="M248.14,-383.32C264.54,-399.89 295.18,-429.3 325,-449.74 357.94,-472.33 399.75,-492.4 425.94,-504.07"/>
<polygon fill="black" stroke="black" points="424.6,-507.3 435.17,-508.12 427.42,-500.89 424.6,-507.3"/>
<text text-anchor="middle" x="343.5" y="-475.54" font-family="Times,serif" font-size="14.00">1/1 (1)</text>
</g>
<!-- 3&#45;&gt;8 -->
<g id="edge12" class="edge">
<title>3&#45;&gt;8</title>
<path fill="none" stroke="black" d="M253.23,-372.75C290.51,-377.08 378.92,-387.36 423.82,-392.58"/>
<polygon fill="black" stroke="black" points="423.65,-396.09 433.99,-393.77 424.46,-389.13 423.65,-396.09"/>
<text text-anchor="middle" x="343.5" y="-387.54" font-family="Times,serif" font-size="14.00">0/1 (3)</text>
</g>
<!-- 3&#45;&gt;7 -->
<g id="edge11" class="edge">
<title>3&#45;&gt;7</title>
<path fill="none" stroke="black" d="M241.86,-354.01C257.12,-311.06 298.75,-198.23 325,-168.74 352.79,-137.52 397,-115.84 424.99,-104.35"/>
<polygon fill="black" stroke="black" points="426.49,-107.51 434.5,-100.57 423.92,-101 426.49,-107.51"/>
<text text-anchor="middle" x="343.5" y="-172.54" font-family="Times,serif" font-size="14.00">0/1 (2)</text>
</g>
<!-- 4&#45;&gt;6 -->
<g id="edge13" class="edge">
<title>4&#45;&gt;6</title>
<path fill="none" stroke="black" d="M249.44,-271.77C266.02,-259.02 295.63,-238.69 325,-230.74 358.93,-221.56 399.35,-230.74 425.09,-239.01"/>
<polygon fill="black" stroke="black" points="424.24,-242.42 434.83,-242.32 426.49,-235.79 424.24,-242.42"/>
<text text-anchor="middle" x="343.5" y="-234.54" font-family="Times,serif" font-size="14.00">1/1 (1)</text>
</g>
<!-- 4&#45;&gt;8 -->
<g id="edge15" class="edge">
<title>4&#45;&gt;8</title>
<path fill="none" stroke="black" d="M251.46,-290.87C288.42,-310.29 382.11,-359.54 426.7,-382.97"/>
<polygon fill="black" stroke="black" points="425.2,-386.14 435.68,-387.69 428.45,-379.94 425.2,-386.14"/>
<text text-anchor="middle" x="343.5" y="-349.54" font-family="Times,serif" font-size="14.00">0/1 (3)</text>
</g>
<!-- 4&#45;&gt;7 -->
<g id="edge14" class="edge">
<title>4&#45;&gt;7</title>
<path fill="none" stroke="black" d="M240.38,-265.31C252.75,-217.59 289.39,-86.75 325,-62.74 356.64,-41.41 401.44,-62.21 428.22,-78.8"/>
<polygon fill="black" stroke="black" points="426.6,-81.92 436.89,-84.42 430.4,-76.04 426.6,-81.92"/>
<text text-anchor="middle" x="343.5" y="-66.54" font-family="Times,serif" font-size="14.00">0/1 (2)</text>
</g>
<!-- 9 -->
<g id="node10" class="node">
<title>9</title>
<ellipse fill="none" stroke="black" cx="669" cy="-332.74" rx="18" ry="18"/>
<text text-anchor="middle" x="669" y="-329.04" font-family="Times,serif" font-size="14.00">9</text>
</g>
<!-- 5&#45;&gt;9 -->
<g id="edge16" class="edge">
<title>5&#45;&gt;9</title>
<path fill="none" stroke="black" d="M466.45,-503.36C502.81,-472.58 603.26,-387.54 647.09,-350.44"/>
<polygon fill="black" stroke="black" points="649.46,-353.02 654.83,-343.89 644.94,-347.68 649.46,-353.02"/>
<text text-anchor="middle" x="560.5" y="-437.54" font-family="Times,serif" font-size="14.00">1/1 (1)</text>
</g>
<!-- 6&#45;&gt;9 -->
<g id="edge17" class="edge">
<title>6&#45;&gt;9</title>
<path fill="none" stroke="black" d="M469.16,-255.06C506.22,-269.53 597.56,-305.22 642.37,-322.73"/>
<polygon fill="black" stroke="black" points="641.36,-326.09 651.95,-326.47 643.91,-319.57 641.36,-326.09"/>
<text text-anchor="middle" x="560.5" y="-299.54" font-family="Times,serif" font-size="14.00">1/1 (1)</text>
</g>
<!-- 8&#45;&gt;9 -->
<g id="edge19" class="edge">
<title>8&#45;&gt;9</title>
<path fill="none" stroke="black" d="M469.51,-390.9C506.64,-380.03 596.96,-353.56 641.82,-340.41"/>
<polygon fill="black" stroke="black" points="642.82,-343.77 651.43,-337.6 640.85,-337.05 642.82,-343.77"/>
<text text-anchor="middle" x="560.5" y="-371.54" font-family="Times,serif" font-size="14.00">1/1 (1)</text>
</g>
<!-- 7&#45;&gt;9 -->
<g id="edge18" class="edge">
<title>7&#45;&gt;9</title>
<path fill="none" stroke="black" d="M464.87,-107.88C500.4,-147.21 606.16,-264.29 649.33,-312.08"/>
<polygon fill="black" stroke="black" points="646.87,-314.58 656.17,-319.65 652.06,-309.88 646.87,-314.58"/>
<text text-anchor="middle" x="560.5" y="-231.54" font-family="Times,serif" font-size="14.00">1/1 (1)</text>
</g>
</g>
</svg>
