<?xml version="1.0" encoding="UTF-8" standalone="no"?>
<!DOCTYPE svg PUBLIC "-//W3C//DTD SVG 1.1//EN"
 "http://www.w3.org/Graphics/SVG/1.1/DTD/svg11.dtd">
<!-- Generated by graphviz version 2.50.0 (20211204.2007)
 -->
<!-- Title: Test_Graph Pages: 1 -->
<svg width="1077pt" height="173pt"
 viewBox="0.00 0.00 1077.00 173.00" xmlns="http://www.w3.org/2000/svg" xmlns:xlink="http://www.w3.org/1999/xlink">
<g id="graph0" class="graph" transform="scale(1 1) rotate(0) translate(36 137)">
<title>Test_Graph</title>
<polygon fill="white" stroke="transparent" points="-36,36 -36,-137 1041,-137 1041,36 -36,36"/>
<!-- 1 -->
<g id="node1" class="node">
<title>1</title>
<ellipse fill="none" stroke="black" cx="18" cy="-44" rx="18" ry="18"/>
<text text-anchor="middle" x="18" y="-40.3" font-family="Times,serif" font-size="14.00">1</text>
</g>
<!-- 2 -->
<g id="node2" class="node">
<title>2</title>
<ellipse fill="none" stroke="black" cx="256.5" cy="-83" rx="18" ry="18"/>
<text text-anchor="middle" x="256.5" y="-79.3" font-family="Times,serif" font-size="14.00">2</text>
</g>
<!-- 1&#45;&gt;2 -->
<g id="edge1" class="edge">
<title>1&#45;&gt;2</title>
<path fill="none" stroke="black" d="M36.01,-46.8C76.66,-53.51 179.72,-70.5 228.77,-78.59"/>
<polygon fill="black" stroke="black" points="228.21,-82.05 238.65,-80.22 229.35,-75.14 228.21,-82.05"/>
<text text-anchor="middle" x="133.5" y="-69.8" font-family="Times,serif" font-size="14.00">25/30 (7)</text>
</g>
<!-- 3 -->
<g id="node3" class="node">
<title>3</title>
<ellipse fill="none" stroke="black" cx="502.5" cy="-18" rx="18" ry="18"/>
<text text-anchor="middle" x="502.5" y="-14.3" font-family="Times,serif" font-size="14.00">3</text>
</g>
<!-- 1&#45;&gt;3 -->
<g id="edge2" class="edge">
<title>1&#45;&gt;3</title>
<path fill="none" stroke="black" d="M36.04,-43.01C72.03,-40.92 158.48,-35.93 231,-32 320.05,-27.18 425.62,-21.82 474.36,-19.36"/>
<polygon fill="black" stroke="black" points="474.6,-22.85 484.41,-18.86 474.25,-15.86 474.6,-22.85"/>
<text text-anchor="middle" x="256.5" y="-35.8" font-family="Times,serif" font-size="14.00">20/20 (6)</text>
</g>
<!-- 2&#45;&gt;3 -->
<g id="edge3" class="edge">
<title>2&#45;&gt;3</title>
<path fill="none" stroke="black" d="M274.27,-78.53C315.99,-67.42 424.69,-38.46 475.1,-25.03"/>
<polygon fill="black" stroke="black" points="476.17,-28.37 484.93,-22.41 474.37,-21.61 476.17,-28.37"/>
<text text-anchor="middle" x="379.5" y="-59.8" font-family="Times,serif" font-size="14.00">15/25 (5)</text>
</g>
<!-- 4 -->
<g id="node4" class="node">
<title>4</title>
<ellipse fill="none" stroke="black" cx="748.5" cy="-83" rx="18" ry="18"/>
<text text-anchor="middle" x="748.5" y="-79.3" font-family="Times,serif" font-size="14.00">4</text>
</g>
<!-- 2&#45;&gt;4 -->
<g id="edge4" class="edge">
<title>2&#45;&gt;4</title>
<path fill="none" stroke="black" d="M274.65,-83C347.42,-83 630.95,-83 720.34,-83"/>
<polygon fill="black" stroke="black" points="720.49,-86.5 730.49,-83 720.49,-79.5 720.49,-86.5"/>
<text text-anchor="middle" x="502.5" y="-86.8" font-family="Times,serif" font-size="14.00">10/10 (4)</text>
</g>
<!-- 3&#45;&gt;4 -->
<g id="edge5" class="edge">
<title>3&#45;&gt;4</title>
<path fill="none" stroke="black" d="M520.27,-22.47C561.99,-33.58 670.69,-62.54 721.1,-75.97"/>
<polygon fill="black" stroke="black" points="720.37,-79.39 730.93,-78.59 722.17,-72.63 720.37,-79.39"/>
<text text-anchor="middle" x="625.5" y="-59.8" font-family="Times,serif" font-size="14.00">10/20 (2)</text>
</g>
<!-- 5 -->
<g id="node5" class="node">
<title>5</title>
<ellipse fill="none" stroke="black" cx="987" cy="-44" rx="18" ry="18"/>
<text text-anchor="middle" x="987" y="-40.3" font-family="Times,serif" font-size="14.00">5</text>
</g>
<!-- 3&#45;&gt;5 -->
<g id="edge6" class="edge">
<title>3&#45;&gt;5</title>
<path fill="none" stroke="black" d="M520.59,-18.86C563.32,-21 678.21,-26.81 774,-32 840.43,-35.6 918.54,-40.09 958.87,-42.42"/>
<polygon fill="black" stroke="black" points="958.78,-45.92 968.96,-43.01 959.18,-38.93 958.78,-45.92"/>
<text text-anchor="middle" x="748.5" y="-35.8" font-family="Times,serif" font-size="14.00">25/25 (2)</text>
</g>
<!-- 4&#45;&gt;5 -->
<g id="edge7" class="edge">
<title>4&#45;&gt;5</title>
<path fill="none" stroke="black" d="M766.51,-80.2C807.16,-73.49 910.22,-56.5 959.27,-48.41"/>
<polygon fill="black" stroke="black" points="959.85,-51.86 969.15,-46.78 958.71,-44.95 959.85,-51.86"/>
<text text-anchor="middle" x="871.5" y="-69.8" font-family="Times,serif" font-size="14.00">20/20 (1)</text>
</g>
</g>
</svg>
