<?xml version="1.0" encoding="UTF-8" standalone="no"?>
<!DOCTYPE svg PUBLIC "-//W3C//DTD SVG 1.1//EN"
 "http://www.w3.org/Graphics/SVG/1.1/DTD/svg11.dtd">
<!-- Generated by graphviz version 2.42.3 (20191010.1750)
 -->
<!-- Title: Test_Graph Pages: 1 -->
<svg width="548pt" height="623pt"
 viewBox="0.00 0.00 547.67 622.54" xmlns="http://www.w3.org/2000/svg" xmlns:xlink="http://www.w3.org/1999/xlink">
<g id="graph0" class="graph" transform="scale(1 1) rotate(0) translate(4 618.54)">
<title>Test_Graph</title>
<polygon fill="white" stroke="transparent" points="-4,4 -4,-618.54 543.67,-618.54 543.67,4 -4,4"/>
<!-- Lucas -->
<g id="node1" class="node">
<title>Lucas</title>
<ellipse fill="none" stroke="black" cx="188.34" cy="-434.84" rx="38.19" ry="38.19"/>
<text text-anchor="middle" x="188.34" y="-431.14" font-family="Times,serif" font-size="14.00">Lucas</text>
</g>
<!-- forgeron -->
<g id="node2" class="node">
<title>forgeron</title>
<ellipse fill="none" stroke="black" cx="355.23" cy="-563.84" rx="50.89" ry="50.89"/>
<text text-anchor="middle" x="355.23" y="-560.14" font-family="Times,serif" font-size="14.00">forgeron</text>
</g>
<!-- Lucas&#45;&gt;forgeron -->
<g id="edge1" class="edge">
<title>Lucas&#45;&gt;forgeron</title>
<path fill="none" stroke="black" d="M226.37,-440.56C241.9,-444.57 259.19,-451.37 271.58,-462.84 286.49,-476.64 277.82,-488.29 289.58,-504.84 294.82,-512.21 301.11,-519.34 307.69,-525.94"/>
<polygon fill="black" stroke="black" points="305.27,-528.47 314.9,-532.89 310.13,-523.43 305.27,-528.47"/>
<text text-anchor="middle" x="260.08" y="-466.64" font-family="Times,serif" font-size="14.00">1/1</text>
</g>
<!-- jardinier -->
<g id="node3" class="node">
<title>jardinier</title>
<ellipse fill="none" stroke="black" cx="355.23" cy="-295.84" rx="50.89" ry="50.89"/>
<text text-anchor="middle" x="355.23" y="-292.14" font-family="Times,serif" font-size="14.00">jardinier</text>
</g>
<!-- Lucas&#45;&gt;jardinier -->
<g id="edge2" class="edge">
<title>Lucas&#45;&gt;jardinier</title>
<path fill="none" stroke="black" d="M224.48,-421.84C240.37,-414.61 258.49,-404.31 271.58,-390.84 284.06,-378.02 278.8,-369.11 289.58,-354.84 295.04,-347.63 301.44,-340.59 308.07,-334.02"/>
<polygon fill="black" stroke="black" points="310.5,-336.54 315.31,-327.1 305.66,-331.48 310.5,-336.54"/>
<text text-anchor="middle" x="260.08" y="-411.64" font-family="Times,serif" font-size="14.00">0/1</text>
</g>
<!-- Puit -->
<g id="node8" class="node">
<title>Puit</title>
<ellipse fill="none" stroke="black" cx="509.77" cy="-295.84" rx="29.8" ry="29.8"/>
<text text-anchor="middle" x="509.77" y="-292.14" font-family="Times,serif" font-size="14.00">Puit</text>
</g>
<!-- forgeron&#45;&gt;Puit -->
<g id="edge10" class="edge">
<title>forgeron&#45;&gt;Puit</title>
<path fill="none" stroke="black" d="M395.6,-532.92C404.7,-524.5 413.78,-514.9 420.87,-504.84 458.88,-450.99 484.77,-378.16 498.14,-334.23"/>
<polygon fill="black" stroke="black" points="501.53,-335.09 501.03,-324.51 494.82,-333.1 501.53,-335.09"/>
<text text-anchor="middle" x="450.37" y="-476.64" font-family="Times,serif" font-size="14.00">1/1</text>
</g>
<!-- jardinier&#45;&gt;Puit -->
<g id="edge13" class="edge">
<title>jardinier&#45;&gt;Puit</title>
<path fill="none" stroke="black" d="M406.18,-295.84C426.7,-295.84 450.13,-295.84 469.41,-295.84"/>
<polygon fill="black" stroke="black" points="469.65,-299.34 479.65,-295.84 469.65,-292.34 469.65,-299.34"/>
<text text-anchor="middle" x="450.37" y="-299.64" font-family="Times,serif" font-size="14.00">1/1</text>
</g>
<!-- Source -->
<g id="node4" class="node">
<title>Source</title>
<ellipse fill="none" stroke="black" cx="43.55" cy="-434.84" rx="43.59" ry="43.59"/>
<text text-anchor="middle" x="43.55" y="-431.14" font-family="Times,serif" font-size="14.00">Source</text>
</g>
<!-- Source&#45;&gt;Lucas -->
<g id="edge3" class="edge">
<title>Source&#45;&gt;Lucas</title>
<path fill="none" stroke="black" d="M87.39,-434.84C103.85,-434.84 122.74,-434.84 139.63,-434.84"/>
<polygon fill="black" stroke="black" points="139.85,-438.34 149.85,-434.84 139.85,-431.34 139.85,-438.34"/>
<text text-anchor="middle" x="116.59" y="-438.64" font-family="Times,serif" font-size="14.00">1/1</text>
</g>
<!-- Marie -->
<g id="node5" class="node">
<title>Marie</title>
<ellipse fill="none" stroke="black" cx="188.34" cy="-529.84" rx="38.19" ry="38.19"/>
<text text-anchor="middle" x="188.34" y="-526.14" font-family="Times,serif" font-size="14.00">Marie</text>
</g>
<!-- Source&#45;&gt;Marie -->
<g id="edge4" class="edge">
<title>Source&#45;&gt;Marie</title>
<path fill="none" stroke="black" d="M80.21,-458.57C100.68,-472.19 126.44,-489.33 147.57,-503.38"/>
<polygon fill="black" stroke="black" points="145.74,-506.38 156.01,-509 149.62,-500.55 145.74,-506.38"/>
<text text-anchor="middle" x="116.59" y="-491.64" font-family="Times,serif" font-size="14.00">1/1</text>
</g>
<!-- Cedric -->
<g id="node6" class="node">
<title>Cedric</title>
<ellipse fill="none" stroke="black" cx="188.34" cy="-335.84" rx="42.49" ry="42.49"/>
<text text-anchor="middle" x="188.34" y="-332.14" font-family="Times,serif" font-size="14.00">Cedric</text>
</g>
<!-- Source&#45;&gt;Cedric -->
<g id="edge5" class="edge">
<title>Source&#45;&gt;Cedric</title>
<path fill="none" stroke="black" d="M79.84,-410.37C99.44,-396.79 123.96,-379.78 144.64,-365.45"/>
<polygon fill="black" stroke="black" points="146.72,-368.27 152.94,-359.69 142.73,-362.52 146.72,-368.27"/>
<text text-anchor="middle" x="116.59" y="-394.64" font-family="Times,serif" font-size="14.00">1/1</text>
</g>
<!-- Marie&#45;&gt;forgeron -->
<g id="edge6" class="edge">
<title>Marie&#45;&gt;forgeron</title>
<path fill="none" stroke="black" d="M226.34,-537.48C246.69,-541.67 272.41,-546.97 295.43,-551.72"/>
<polygon fill="black" stroke="black" points="294.95,-555.2 305.46,-553.79 296.37,-548.34 294.95,-555.2"/>
<text text-anchor="middle" x="260.08" y="-548.64" font-family="Times,serif" font-size="14.00">0/1</text>
</g>
<!-- commercial -->
<g id="node7" class="node">
<title>commercial</title>
<ellipse fill="none" stroke="black" cx="355.23" cy="-429.84" rx="65.79" ry="65.79"/>
<text text-anchor="middle" x="355.23" y="-426.14" font-family="Times,serif" font-size="14.00">commercial</text>
</g>
<!-- Marie&#45;&gt;commercial -->
<g id="edge7" class="edge">
<title>Marie&#45;&gt;commercial</title>
<path fill="none" stroke="black" d="M221.52,-510.33C241.05,-498.48 266.67,-482.94 290.19,-468.68"/>
<polygon fill="black" stroke="black" points="292,-471.67 298.74,-463.5 288.37,-465.69 292,-471.67"/>
<text text-anchor="middle" x="260.08" y="-494.64" font-family="Times,serif" font-size="14.00">1/1</text>
</g>
<!-- Cedric&#45;&gt;jardinier -->
<g id="edge8" class="edge">
<title>Cedric&#45;&gt;jardinier</title>
<path fill="none" stroke="black" d="M229.68,-326.06C249.6,-321.23 274.01,-315.3 295.93,-309.99"/>
<polygon fill="black" stroke="black" points="296.9,-313.35 305.8,-307.59 295.25,-306.55 296.9,-313.35"/>
<text text-anchor="middle" x="260.08" y="-323.64" font-family="Times,serif" font-size="14.00">1/1</text>
</g>
<!-- Cedric&#45;&gt;commercial -->
<g id="edge9" class="edge">
<title>Cedric&#45;&gt;commercial</title>
<path fill="none" stroke="black" d="M227.11,-352.99C241.26,-359.73 257.36,-367.78 271.58,-375.84 278.29,-379.65 285.2,-383.78 292.02,-388.02"/>
<polygon fill="black" stroke="black" points="290.27,-391.05 300.6,-393.41 294,-385.12 290.27,-391.05"/>
<text text-anchor="middle" x="260.08" y="-379.64" font-family="Times,serif" font-size="14.00">0/1</text>
</g>
<!-- commercial&#45;&gt;Puit -->
<g id="edge14" class="edge">
<title>commercial&#45;&gt;Puit</title>
<path fill="none" stroke="black" d="M405.33,-386.71C429.58,-365.41 458.05,-340.4 478.97,-322.02"/>
<polygon fill="black" stroke="black" points="481.39,-324.55 486.6,-315.32 476.77,-319.29 481.39,-324.55"/>
<text text-anchor="middle" x="450.37" y="-357.64" font-family="Times,serif" font-size="14.00">1/1</text>
</g>
<!-- coiffeur -->
<g id="node9" class="node">
<title>coiffeur</title>
<ellipse fill="none" stroke="black" cx="355.23" cy="-180.84" rx="46.59" ry="46.59"/>
<text text-anchor="middle" x="355.23" y="-177.14" font-family="Times,serif" font-size="14.00">coiffeur</text>
</g>
<!-- coiffeur&#45;&gt;Puit -->
<g id="edge11" class="edge">
<title>coiffeur&#45;&gt;Puit</title>
<path fill="none" stroke="black" d="M393.15,-208.68C418.87,-228.07 452.8,-253.65 477.24,-272.07"/>
<polygon fill="black" stroke="black" points="475.37,-275.05 485.46,-278.27 479.58,-269.46 475.37,-275.05"/>
<text text-anchor="middle" x="450.37" y="-261.64" font-family="Times,serif" font-size="14.00">0/1</text>
</g>
<!-- boulanger -->
<g id="node10" class="node">
<title>boulanger</title>
<ellipse fill="none" stroke="black" cx="355.23" cy="-57.84" rx="57.69" ry="57.69"/>
<text text-anchor="middle" x="355.23" y="-54.14" font-family="Times,serif" font-size="14.00">boulanger</text>
</g>
<!-- boulanger&#45;&gt;Puit -->
<g id="edge12" class="edge">
<title>boulanger&#45;&gt;Puit</title>
<path fill="none" stroke="black" d="M397.91,-97.26C406.02,-105.94 414.1,-115.38 420.87,-124.84 451.59,-167.77 477.9,-222.91 493.52,-258.8"/>
<polygon fill="black" stroke="black" points="490.48,-260.58 497.64,-268.38 496.91,-257.81 490.48,-260.58"/>
<text text-anchor="middle" x="450.37" y="-195.64" font-family="Times,serif" font-size="14.00">0/1</text>
</g>
</g>
</svg>
