<?xml version="1.0" encoding="UTF-8" standalone="no"?>
<!DOCTYPE svg PUBLIC "-//W3C//DTD SVG 1.1//EN"
 "http://www.w3.org/Graphics/SVG/1.1/DTD/svg11.dtd">
<!-- Generated by graphviz version 2.50.0 (20211204.2007)
 -->
<!-- Title: Test_Graph Pages: 1 -->
<svg width="465pt" height="518pt"
 viewBox="0.00 0.00 465.07 518.09" xmlns="http://www.w3.org/2000/svg" xmlns:xlink="http://www.w3.org/1999/xlink">
<g id="graph0" class="graph" transform="scale(1 1) rotate(0) translate(4 514.09)">
<title>Test_Graph</title>
<polygon fill="white" stroke="transparent" points="-4,4 -4,-514.09 461.07,-514.09 461.07,4 -4,4"/>
<!-- Lucas -->
<g id="node1" class="node">
<title>Lucas</title>
<ellipse fill="none" stroke="black" cx="158.64" cy="-358.15" rx="31.7" ry="31.7"/>
<text text-anchor="middle" x="158.64" y="-354.45" font-family="Times,serif" font-size="14.00">Lucas</text>
</g>
<!-- forgeron -->
<g id="node2" class="node">
<title>forgeron</title>
<ellipse fill="none" stroke="black" cx="300.38" cy="-469.15" rx="40.89" ry="40.89"/>
<text text-anchor="middle" x="300.38" y="-465.45" font-family="Times,serif" font-size="14.00">forgeron</text>
</g>
<!-- Lucas&#45;&gt;forgeron -->
<g id="edge1" class="edge">
<title>Lucas&#45;&gt;forgeron</title>
<path fill="none" stroke="black" d="M189.71,-366.42C202.9,-371.17 217.89,-378.2 229.09,-388.15 241,-398.73 237.23,-406.63 247.09,-419.15 251.42,-424.65 256.35,-430.13 261.4,-435.33"/>
<polygon fill="black" stroke="black" points="259.29,-438.16 268.85,-442.73 264.22,-433.2 259.29,-438.16"/>
<text text-anchor="middle" x="220.09" y="-391.95" font-family="Times,serif" font-size="14.00">1/1</text>
</g>
<!-- jardinier -->
<g id="node3" class="node">
<title>jardinier</title>
<ellipse fill="none" stroke="black" cx="300.38" cy="-245.15" rx="40.09" ry="40.09"/>
<text text-anchor="middle" x="300.38" y="-241.45" font-family="Times,serif" font-size="14.00">jardinier</text>
</g>
<!-- Lucas&#45;&gt;jardinier -->
<g id="edge2" class="edge">
<title>Lucas&#45;&gt;jardinier</title>
<path fill="none" stroke="black" d="M189.48,-350.13C202.78,-345.41 217.93,-338.33 229.09,-328.15 241.43,-316.89 236.93,-308.41 247.09,-295.15 251.55,-289.32 256.7,-283.55 261.99,-278.11"/>
<polygon fill="black" stroke="black" points="264.6,-280.45 269.24,-270.92 259.68,-275.47 264.6,-280.45"/>
<text text-anchor="middle" x="220.09" y="-342.95" font-family="Times,serif" font-size="14.00">0/1</text>
</g>
<!-- Puit -->
<g id="node8" class="node">
<title>Puit</title>
<ellipse fill="none" stroke="black" cx="432.38" cy="-245.15" rx="24.9" ry="24.9"/>
<text text-anchor="middle" x="432.38" y="-241.45" font-family="Times,serif" font-size="14.00">Puit</text>
</g>
<!-- forgeron&#45;&gt;Puit -->
<g id="edge10" class="edge">
<title>forgeron&#45;&gt;Puit</title>
<path fill="none" stroke="black" d="M332.52,-443.18C340.06,-435.92 347.67,-427.67 353.68,-419.15 385.21,-374.41 408.44,-314.82 420.92,-278.26"/>
<polygon fill="black" stroke="black" points="424.3,-279.19 424.16,-268.6 417.67,-276.97 424.3,-279.19"/>
<text text-anchor="middle" x="380.68" y="-391.95" font-family="Times,serif" font-size="14.00">1/1</text>
</g>
<!-- jardinier&#45;&gt;Puit -->
<g id="edge13" class="edge">
<title>jardinier&#45;&gt;Puit</title>
<path fill="none" stroke="black" d="M340.74,-245.15C358.81,-245.15 380.03,-245.15 397.39,-245.15"/>
<polygon fill="black" stroke="black" points="397.64,-248.65 407.64,-245.15 397.64,-241.65 397.64,-248.65"/>
<text text-anchor="middle" x="380.68" y="-248.95" font-family="Times,serif" font-size="14.00">1/1</text>
</g>
<!-- Source -->
<g id="node4" class="node">
<title>Source</title>
<ellipse fill="none" stroke="black" cx="35.1" cy="-358.15" rx="35.19" ry="35.19"/>
<text text-anchor="middle" x="35.1" y="-354.45" font-family="Times,serif" font-size="14.00">Source</text>
</g>
<!-- Source&#45;&gt;Lucas -->
<g id="edge3" class="edge">
<title>Source&#45;&gt;Lucas</title>
<path fill="none" stroke="black" d="M70.28,-358.15C84.65,-358.15 101.5,-358.15 116.55,-358.15"/>
<polygon fill="black" stroke="black" points="116.62,-361.65 126.62,-358.15 116.62,-354.65 116.62,-361.65"/>
<text text-anchor="middle" x="97.19" y="-361.95" font-family="Times,serif" font-size="14.00">1/1</text>
</g>
<!-- Marie -->
<g id="node5" class="node">
<title>Marie</title>
<ellipse fill="none" stroke="black" cx="158.64" cy="-440.15" rx="32.49" ry="32.49"/>
<text text-anchor="middle" x="158.64" y="-436.45" font-family="Times,serif" font-size="14.00">Marie</text>
</g>
<!-- Source&#45;&gt;Marie -->
<g id="edge4" class="edge">
<title>Source&#45;&gt;Marie</title>
<path fill="none" stroke="black" d="M64.59,-377.37C81.84,-389.01 103.97,-403.94 122.32,-416.32"/>
<polygon fill="black" stroke="black" points="120.74,-419.47 130.99,-422.16 124.66,-413.67 120.74,-419.47"/>
<text text-anchor="middle" x="97.19" y="-406.95" font-family="Times,serif" font-size="14.00">1/1</text>
</g>
<!-- Cedric -->
<g id="node6" class="node">
<title>Cedric</title>
<ellipse fill="none" stroke="black" cx="158.64" cy="-274.15" rx="34.39" ry="34.39"/>
<text text-anchor="middle" x="158.64" y="-270.45" font-family="Times,serif" font-size="14.00">Cedric</text>
</g>
<!-- Source&#45;&gt;Cedric -->
<g id="edge5" class="edge">
<title>Source&#45;&gt;Cedric</title>
<path fill="none" stroke="black" d="M64.59,-338.45C81.48,-326.78 103.04,-311.88 121.16,-299.36"/>
<polygon fill="black" stroke="black" points="123.51,-301.99 129.74,-293.43 119.53,-296.23 123.51,-301.99"/>
<text text-anchor="middle" x="97.19" y="-324.95" font-family="Times,serif" font-size="14.00">1/1</text>
</g>
<!-- Marie&#45;&gt;forgeron -->
<g id="edge6" class="edge">
<title>Marie&#45;&gt;forgeron</title>
<path fill="none" stroke="black" d="M190.65,-446.58C208.19,-450.22 230.53,-454.86 250.38,-458.98"/>
<polygon fill="black" stroke="black" points="249.7,-462.41 260.2,-461.01 251.12,-455.56 249.7,-462.41"/>
<text text-anchor="middle" x="220.09" y="-456.95" font-family="Times,serif" font-size="14.00">0/1</text>
</g>
<!-- commercial -->
<g id="node7" class="node">
<title>commercial</title>
<ellipse fill="none" stroke="black" cx="300.38" cy="-357.15" rx="53.09" ry="53.09"/>
<text text-anchor="middle" x="300.38" y="-353.45" font-family="Times,serif" font-size="14.00">commercial</text>
</g>
<!-- Marie&#45;&gt;commercial -->
<g id="edge7" class="edge">
<title>Marie&#45;&gt;commercial</title>
<path fill="none" stroke="black" d="M188.94,-427.6C201.56,-421.85 216.31,-414.65 229.09,-407.15 235.72,-403.25 242.51,-398.91 249.14,-394.46"/>
<polygon fill="black" stroke="black" points="251.16,-397.32 257.43,-388.78 247.2,-391.55 251.16,-397.32"/>
<text text-anchor="middle" x="220.09" y="-419.95" font-family="Times,serif" font-size="14.00">1/1</text>
</g>
<!-- Cedric&#45;&gt;jardinier -->
<g id="edge8" class="edge">
<title>Cedric&#45;&gt;jardinier</title>
<path fill="none" stroke="black" d="M192.76,-267.27C210.15,-263.66 231.78,-259.18 251.01,-255.18"/>
<polygon fill="black" stroke="black" points="251.73,-258.61 260.81,-253.15 250.31,-251.76 251.73,-258.61"/>
<text text-anchor="middle" x="220.09" y="-265.95" font-family="Times,serif" font-size="14.00">1/1</text>
</g>
<!-- Cedric&#45;&gt;commercial -->
<g id="edge9" class="edge">
<title>Cedric&#45;&gt;commercial</title>
<path fill="none" stroke="black" d="M189.22,-290.35C201.61,-297.24 216.13,-305.46 229.09,-313.15 234.61,-316.42 240.35,-319.9 246.05,-323.4"/>
<polygon fill="black" stroke="black" points="244.61,-326.62 254.95,-328.89 248.28,-320.66 244.61,-326.62"/>
<text text-anchor="middle" x="220.09" y="-316.95" font-family="Times,serif" font-size="14.00">0/1</text>
</g>
<!-- commercial&#45;&gt;Puit -->
<g id="edge14" class="edge">
<title>commercial&#45;&gt;Puit</title>
<path fill="none" stroke="black" d="M341.45,-322.63C362.15,-304.79 386.83,-283.53 405.09,-267.79"/>
<polygon fill="black" stroke="black" points="407.7,-270.16 412.99,-260.98 403.13,-264.86 407.7,-270.16"/>
<text text-anchor="middle" x="380.68" y="-297.95" font-family="Times,serif" font-size="14.00">1/1</text>
</g>
<!-- coiffeur -->
<g id="node9" class="node">
<title>coiffeur</title>
<ellipse fill="none" stroke="black" cx="300.38" cy="-148.15" rx="38.19" ry="38.19"/>
<text text-anchor="middle" x="300.38" y="-144.45" font-family="Times,serif" font-size="14.00">coiffeur</text>
</g>
<!-- coiffeur&#45;&gt;Puit -->
<g id="edge11" class="edge">
<title>coiffeur&#45;&gt;Puit</title>
<path fill="none" stroke="black" d="M331.53,-170.64C353.29,-186.88 382.43,-208.63 403.62,-224.43"/>
<polygon fill="black" stroke="black" points="401.77,-227.42 411.88,-230.6 405.96,-221.81 401.77,-227.42"/>
<text text-anchor="middle" x="380.68" y="-216.95" font-family="Times,serif" font-size="14.00">0/1</text>
</g>
<!-- boulanger -->
<g id="node10" class="node">
<title>boulanger</title>
<ellipse fill="none" stroke="black" cx="300.38" cy="-46.15" rx="46.29" ry="46.29"/>
<text text-anchor="middle" x="300.38" y="-42.45" font-family="Times,serif" font-size="14.00">boulanger</text>
</g>
<!-- boulanger&#45;&gt;Puit -->
<g id="edge12" class="edge">
<title>boulanger&#45;&gt;Puit</title>
<path fill="none" stroke="black" d="M334.14,-77.75C340.99,-85.11 347.88,-93.15 353.68,-101.15 379.94,-137.35 403.29,-183.5 417.38,-213.66"/>
<polygon fill="black" stroke="black" points="414.25,-215.24 421.61,-222.86 420.61,-212.31 414.25,-215.24"/>
<text text-anchor="middle" x="380.68" y="-161.95" font-family="Times,serif" font-size="14.00">0/1</text>
</g>
</g>
</svg>
